<?xml version="1.0" encoding="UTF-8"?>
<!DOCTYPE svg PUBLIC "-//W3C//DTD SVG 1.1//EN" "http://www.w3.org/Graphics/SVG/1.1/DTD/svg11.dtd">
<svg xmlns="http://www.w3.org/2000/svg" xmlns:xlink="http://www.w3.org/1999/xlink" version="1.1" width="1261px" height="97px" viewBox="-0.5 -0.5 1261 97"><defs/><g><ellipse cx="1241.5" cy="53.83" rx="17.647058823529417" ry="17.647058823529417" fill-opacity="0.75" fill="#00c3ff" stroke="#ffffff" stroke-opacity="0.75" pointer-events="all"/><ellipse cx="16" cy="42" rx="15.000000000000002" ry="15.000000000000002" fill="none" stroke="#ffffff" stroke-opacity="0.3" stroke-width="3" pointer-events="all"/><ellipse cx="16" cy="42" rx="14.117647058823534" ry="14.117647058823534" fill-opacity="0.75" fill="#00c3ff" stroke="#ffffff" stroke-opacity="0.75" pointer-events="all"/><rect x="7.76" y="32.1" width="16.47" height="16.47" fill="none" stroke="none" transform="rotate(-45,16,40.33)" pointer-events="all"/><path d="M 9.68 32.11 C 8.64 32.1 7.79 32.94 7.79 33.98 C 7.79 35.02 8.65 35.87 9.69 35.85 L 9.68 35.85 C 12.23 35.85 15.2 36.8 17.44 39.1 C 19.57 41.29 20.48 44.02 20.48 46.68 L 20.48 46.67 C 20.46 47.71 21.31 48.57 22.35 48.57 C 23.39 48.57 24.24 47.71 24.22 46.67 C 24.22 43.15 22.98 39.42 20.12 36.49 C 17.1 33.4 13.16 32.11 9.68 32.11 Z M 9.68 32.71 L 9.68 32.71 L 9.68 32.71 C 13.01 32.71 16.79 33.94 19.69 36.91 C 22.44 39.72 23.63 43.3 23.63 46.68 L 23.63 46.68 L 23.63 46.68 C 23.64 47.4 23.07 47.97 22.35 47.97 C 21.63 47.97 21.06 47.4 21.07 46.68 L 21.07 46.68 L 21.07 46.68 C 21.07 43.89 20.11 40.99 17.87 38.69 C 15.5 36.26 12.38 35.26 9.68 35.26 L 9.68 35.26 L 9.68 35.26 C 8.96 35.27 8.38 34.7 8.38 33.98 C 8.38 33.27 8.96 32.7 9.68 32.71 Z M 9.66 37.4 C 8.62 37.39 7.76 38.23 7.76 39.27 C 7.76 40.31 8.62 41.16 9.66 41.14 L 9.66 41.14 C 10.82 41.14 12.36 41.52 13.79 43.11 C 14.76 44.19 15.16 45.65 15.16 46.65 L 15.16 46.65 C 15.14 47.69 15.99 48.55 17.03 48.55 C 18.07 48.55 18.91 47.69 18.9 46.65 C 18.9 44.77 18.27 42.5 16.58 40.61 C 14.52 38.32 11.98 37.4 9.66 37.4 Z M 9.65 38 L 9.66 38 L 9.66 38 C 11.83 38 14.18 38.84 16.14 41.01 C 17.72 42.77 18.3 44.91 18.3 46.65 L 18.3 46.66 L 18.3 46.66 C 18.31 47.37 17.74 47.95 17.03 47.95 C 16.31 47.95 15.74 47.37 15.75 46.66 L 15.75 46.66 L 15.75 46.65 C 15.75 45.5 15.33 43.93 14.24 42.71 C 12.7 41 10.96 40.55 9.66 40.55 L 9.66 40.55 L 9.65 40.55 C 8.94 40.56 8.36 39.99 8.36 39.27 C 8.36 38.56 8.94 37.99 9.65 38 Z M 10.56 43.03 C 9.05 43.03 7.82 44.25 7.82 45.76 C 7.82 47.26 9.05 48.49 10.56 48.49 C 12.06 48.49 13.29 47.26 13.29 45.76 C 13.29 44.25 12.06 43.03 10.56 43.03 Z M 10.56 43.62 C 11.74 43.62 12.7 44.57 12.7 45.76 C 12.7 46.94 11.74 47.89 10.56 47.89 C 9.37 47.89 8.42 46.94 8.42 45.76 C 8.42 44.57 9.37 43.62 10.56 43.62 Z" fill="#ffffff" stroke="none" transform="rotate(-45,16,40.33)" pointer-events="all"/><ellipse cx="315" cy="72" rx="20" ry="20" fill="none" stroke="#ffffff" stroke-opacity="0.3" stroke-width="4" pointer-events="all"/><ellipse cx="315" cy="72" rx="17.647058823529417" ry="17.647058823529417" fill-opacity="0.75" fill="#00c3ff" stroke="#ffffff" stroke-opacity="0.75" pointer-events="all"/><ellipse cx="1102" cy="42" rx="20" ry="20" fill="none" stroke="#ffffff" stroke-opacity="0.3" stroke-width="4" pointer-events="none"/><ellipse cx="1102" cy="42" rx="17.647058823529417" ry="17.647058823529417" fill-opacity="0.75" fill="#00c3ff" stroke="#ffffff" stroke-opacity="0.75" pointer-events="none"/><path d="M 1094.93 33.43 C 1094.89 33.01 1095.04 32.6 1095.34 32.3 C 1095.64 32.01 1096.06 31.85 1096.49 31.87 L 1107.62 31.87 C 1108.41 31.87 1109.07 32.48 1109.1 33.24 L 1109.1 50.86 C 1109.06 51.48 1108.62 51.99 1108 52.15 L 1096.07 52.15 C 1095.48 52.03 1095.03 51.58 1094.93 51.01 Z M 1099.62 32.55 C 1099.43 32.61 1099.31 32.77 1099.31 32.96 C 1099.31 33.14 1099.43 33.31 1099.62 33.37 L 1104.47 33.37 C 1104.66 33.31 1104.78 33.14 1104.78 32.96 C 1104.78 32.77 1104.66 32.61 1104.47 32.55 Z M 1096.34 33.98 L 1096.34 48.64 L 1107.73 48.64 L 1107.73 33.98 Z M 1100.88 49.9 C 1100.62 49.9 1100.41 50.11 1100.41 50.36 C 1100.41 50.62 1100.62 50.82 1100.88 50.82 L 1103.27 50.82 C 1103.53 50.82 1103.75 50.62 1103.75 50.36 C 1103.75 50.11 1103.53 49.9 1103.27 49.9 Z" fill="#ffffff" stroke="none" pointer-events="none"/><ellipse cx="961" cy="72" rx="20" ry="20" fill="none" stroke="#ffffff" stroke-opacity="0.3" stroke-width="4" pointer-events="none"/><ellipse cx="961" cy="72" rx="17.647058823529417" ry="17.647058823529417" fill-opacity="0.75" fill="#00c3ff" stroke="#ffffff" stroke-opacity="0.75" pointer-events="none"/><path d="M 963.92 71.05 C 963.27 71.05 962.74 70.52 962.74 69.87 C 962.74 69.17 963.42 68.14 963.92 67.5 C 964.42 68.14 965.09 69.17 965.09 69.87 C 965.09 70.52 964.57 71.05 963.92 71.05 Z M 963.56 66.43 C 963.38 66.63 961.79 68.44 961.79 69.87 C 961.79 71.04 962.74 72 963.92 72 C 965.09 72 966.05 71.05 966.05 69.87 C 966.05 68.44 964.45 66.63 964.27 66.43 C 964.09 66.23 963.74 66.23 963.56 66.43 Z M 957.38 71.52 C 957.01 71.52 956.7 71.22 956.7 70.84 C 956.7 70.46 957.04 69.88 957.38 69.42 C 957.71 69.86 958.06 70.46 958.06 70.84 C 958.06 71.22 957.76 71.52 957.38 71.52 Z M 959.02 70.84 C 959.02 69.79 957.87 68.49 957.74 68.34 C 957.56 68.14 957.21 68.14 957.03 68.34 C 956.9 68.49 955.75 69.79 955.75 70.84 C 955.75 71.75 956.48 72.48 957.38 72.48 C 958.29 72.48 959.02 71.74 959.02 70.84 Z M 960.76 76.77 C 959.84 76.77 959.09 76.02 959.09 75.1 C 959.09 74.09 960.1 72.62 960.76 71.79 C 961.43 72.62 962.43 74.09 962.43 75.1 C 962.43 76.02 961.68 76.77 960.76 76.77 Z M 960.41 70.73 C 960.31 70.83 958.14 73.27 958.14 75.1 C 958.14 76.55 959.31 77.72 960.76 77.73 C 962.21 77.72 963.38 76.55 963.39 75.1 C 963.39 73.27 961.21 70.83 961.12 70.73 C 960.94 70.52 960.59 70.52 960.41 70.73 Z M 968.16 78.62 C 968.16 78.92 967.92 79.16 967.62 79.16 L 954.38 79.16 C 954.08 79.16 953.84 78.92 953.84 78.62 L 953.84 65.38 C 953.84 65.08 954.08 64.84 954.38 64.84 L 967.62 64.84 C 967.92 64.84 968.16 65.08 968.16 65.38 Z M 971.5 67.7 L 971.5 66.75 L 969.11 66.75 L 969.11 65.38 C 969.11 64.56 968.44 63.89 967.62 63.89 L 966.25 63.89 L 966.25 61.5 L 965.3 61.5 L 965.3 63.89 L 963.86 63.89 L 963.86 61.5 L 962.91 61.5 L 962.91 63.89 L 961.48 63.89 L 961.48 61.5 L 960.52 61.5 L 960.52 63.89 L 959.09 63.89 L 959.09 61.5 L 958.14 61.5 L 958.14 63.89 L 956.7 63.89 L 956.7 61.5 L 955.75 61.5 L 955.75 63.89 L 954.38 63.89 C 953.56 63.89 952.89 64.56 952.89 65.38 L 952.89 66.75 L 950.5 66.75 L 950.5 67.7 L 952.89 67.7 L 952.89 69.14 L 950.5 69.14 L 950.5 70.09 L 952.89 70.09 L 952.89 71.52 L 950.5 71.52 L 950.5 72.48 L 952.89 72.48 L 952.89 73.91 L 950.5 73.91 L 950.5 74.86 L 952.89 74.86 L 952.89 76.3 L 950.5 76.3 L 950.5 77.25 L 952.89 77.25 L 952.89 78.62 C 952.89 79.44 953.56 80.11 954.38 80.11 L 955.75 80.11 L 955.75 82.5 L 956.7 82.5 L 956.7 80.11 L 958.14 80.11 L 958.14 82.5 L 959.09 82.5 L 959.09 80.11 L 960.52 80.11 L 960.52 82.5 L 961.48 82.5 L 961.48 80.11 L 962.91 80.11 L 962.91 82.5 L 963.86 82.5 L 963.86 80.11 L 965.3 80.11 L 965.3 82.5 L 966.25 82.5 L 966.25 80.11 L 967.62 80.11 C 968.44 80.11 969.11 79.44 969.11 78.62 L 969.11 77.25 L 971.5 77.25 L 971.5 76.3 L 969.11 76.3 L 969.11 74.86 L 971.5 74.86 L 971.5 73.91 L 969.11 73.91 L 969.11 72.48 L 971.5 72.48 L 971.5 71.52 L 969.11 71.52 L 969.11 70.09 L 971.5 70.09 L 971.5 69.14 L 969.11 69.14 L 969.11 67.7 Z" fill="#ffffff" stroke="none" pointer-events="none"/><ellipse cx="531" cy="47" rx="20" ry="20" fill="none" stroke="#ffffff" stroke-opacity="0.3" stroke-width="4" pointer-events="none"/><ellipse cx="531" cy="47" rx="17.647058823529417" ry="17.647058823529417" fill-opacity="0.75" fill="#00c3ff" stroke="#ffffff" stroke-opacity="0.75" pointer-events="none"/><path d="M 30.12 42 L 297.35 72" fill="none" stroke="#ffffff" stroke-opacity="0.5" stroke-width="2" stroke-miterlimit="10" pointer-events="none"/><path d="M 721 61.56 L 531 92 L 332.65 72" fill="none" stroke="#ffffff" stroke-opacity="0.5" stroke-width="2" stroke-miterlimit="10" pointer-events="none"/><path d="M 513.35 47 L 332.65 72" fill="none" stroke="#ffffff" stroke-opacity="0.5" stroke-width="2" stroke-miterlimit="10" pointer-events="none"/><path d="M 721 61.56 L 548.65 47" fill="none" stroke="#ffffff" stroke-opacity="0.5" stroke-width="2" stroke-miterlimit="10" pointer-events="none"/><ellipse cx="741" cy="61.56" rx="20" ry="20" fill="none" stroke="#ffffff" stroke-opacity="0.3" stroke-width="4" pointer-events="none"/><ellipse cx="741" cy="61.56" rx="17.647058823529417" ry="17.647058823529417" fill-opacity="0.75" fill="#00c3ff" stroke="#ffffff" stroke-opacity="0.75" pointer-events="none"/><path d="M 1084.35 42 L 831 22 L 758.65 61.56" fill="none" stroke="#ffffff" stroke-opacity="0.5" stroke-width="2" stroke-miterlimit="10" pointer-events="none"/><path d="M 758.65 61.56 L 943.35 72" fill="none" stroke="#ffffff" stroke-opacity="0.5" stroke-width="2" stroke-miterlimit="10" pointer-events="none"/><path d="M 978.65 72 L 1084.35 42" fill="none" stroke="#ffffff" stroke-opacity="0.5" stroke-width="2" stroke-miterlimit="10" pointer-events="none"/><ellipse cx="530.68" cy="91.67" rx="3.675" ry="3.675" fill-opacity="0.9" fill="#ffffff" stroke="none" pointer-events="none"/><ellipse cx="293.67" cy="23.33" rx="3.675" ry="3.675" fill-opacity="0.9" fill="#ffffff" stroke="none" pointer-events="none"/><ellipse cx="654.68" cy="31.56" rx="3.675" ry="3.675" fill-opacity="0.9" fill="#ffffff" stroke="none" pointer-events="none"/><ellipse cx="1174.68" cy="77.88" rx="3.675" ry="3.675" fill-opacity="0.9" fill="#ffffff" stroke="none" pointer-events="none"/><ellipse cx="894.68" cy="47" rx="3.675" ry="3.675" fill-opacity="0.9" fill="#ffffff" stroke="none" pointer-events="none"/><ellipse cx="214.67" cy="84.32" rx="3.675" ry="3.675" fill-opacity="0.9" fill="#ffffff" stroke="none" pointer-events="none"/><path d="M 31 42 L 215 84" fill="none" stroke="#ffffff" stroke-opacity="0.3" stroke-miterlimit="10" pointer-events="none"/><path d="M 214 84 L 297.35 72" fill="none" stroke="#ffffff" stroke-opacity="0.3" stroke-miterlimit="10" pointer-events="none"/><path d="M 315 54.35 L 294 24" fill="none" stroke="#ffffff" stroke-opacity="0.3" stroke-miterlimit="10" pointer-events="none"/><path d="M 215 84 L 293 23" fill="none" stroke="#ffffff" stroke-opacity="0.3" stroke-miterlimit="10" pointer-events="none"/><path d="M 531 64.65 L 531 92" fill="none" stroke="#ffffff" stroke-opacity="0.3" stroke-miterlimit="10" pointer-events="none"/><path d="M 548.65 47 L 655 32" fill="none" stroke="#ffffff" stroke-opacity="0.3" stroke-miterlimit="10" pointer-events="none"/><path d="M 655 32 L 721 61.56" fill="none" stroke="#ffffff" stroke-opacity="0.3" stroke-miterlimit="10" pointer-events="none"/><path d="M 895 47 L 831.44 22" fill="none" stroke="#ffffff" stroke-opacity="0.3" stroke-miterlimit="10" pointer-events="none"/><path d="M 943.35 72 L 895 47" fill="none" stroke="#ffffff" stroke-opacity="0.3" stroke-miterlimit="10" pointer-events="none"/><path d="M 894 48 L 758.65 61.56" fill="none" stroke="#ffffff" stroke-opacity="0.3" stroke-miterlimit="10" pointer-events="none"/><path d="M 1175 78 L 978.65 72" fill="none" stroke="#ffffff" stroke-opacity="0.3" stroke-miterlimit="10" pointer-events="none"/><path d="M 1175 78 L 1119.65 42" fill="none" stroke="#ffffff" stroke-opacity="0.3" stroke-miterlimit="10" pointer-events="none"/><path d="M 530 92 L 293 24" fill="none" stroke="#ffffff" stroke-opacity="0.15" stroke-miterlimit="10" pointer-events="none"/><path d="M 654 32 L 530 92" fill="none" stroke="#ffffff" stroke-opacity="0.15" stroke-miterlimit="10" pointer-events="none"/><path d="M 895 48 L 1182.64 79" fill="none" stroke="#ffffff" stroke-opacity="0.15" stroke-miterlimit="10" pointer-events="none"/><ellipse cx="832.68" cy="21.67" rx="3.675" ry="3.675" fill-opacity="0.9" fill="#ffffff" stroke="none" pointer-events="none"/><path d="M 294 24 L 833.73 21" fill="none" stroke="#ffffff" stroke-opacity="0.3" stroke-miterlimit="10" pointer-events="none"/><path d="M 306.89 81.56 L 306.89 72.38 L 306.11 72.38 C 305.51 72.35 305.25 71.73 305.6 71.3 L 314.29 62.9 C 314.87 62.44 315.11 62.49 315.62 62.85 L 319.61 66.64 L 319.61 64.33 C 319.61 64.08 319.82 63.77 320.18 63.77 L 321.93 63.77 C 322.22 63.77 322.5 64 322.5 64.35 L 322.5 69.51 L 324.35 71.29 C 324.75 71.76 324.4 72.38 323.84 72.38 L 323.07 72.38 L 323.07 81.56 L 317 81.56 L 317 74.67 L 312.96 74.67 L 312.96 81.56 Z" fill="none" stroke="#ffffff" stroke-miterlimit="10" pointer-events="none"/><path d="M 1241.5 58.11 C 1241.24 58.11 1241.02 57.9 1241.02 57.64 C 1241.02 57.37 1241.24 57.16 1241.5 57.16 C 1241.76 57.16 1241.98 57.37 1241.98 57.64 C 1241.98 57.9 1241.76 58.11 1241.5 58.11 Z M 1241.98 56.29 L 1241.98 50.97 L 1241.02 50.97 L 1241.02 56.29 C 1240.47 56.49 1240.07 57.02 1240.07 57.64 C 1240.07 58.43 1240.71 59.07 1241.5 59.07 C 1242.29 59.07 1242.93 58.43 1242.93 57.64 C 1242.93 57.02 1242.53 56.49 1241.98 56.29 Z M 1242.7 59.12 C 1242.25 59.49 1241.67 59.63 1241.09 59.5 C 1240.35 59.35 1239.76 58.75 1239.62 58 C 1239.48 57.28 1239.77 56.55 1240.36 56.12 L 1240.55 55.98 L 1240.55 49.06 C 1240.55 48.53 1240.97 48.1 1241.5 48.1 C 1242.03 48.1 1242.45 48.53 1242.45 49.06 L 1242.45 55.98 L 1242.64 56.12 C 1243.13 56.49 1243.41 57.04 1243.41 57.64 C 1243.41 58.21 1243.15 58.75 1242.7 59.12 Z M 1243.41 55.51 L 1243.41 49.06 C 1243.41 48 1242.55 47.15 1241.5 47.15 C 1240.45 47.15 1239.59 48 1239.59 49.06 L 1239.59 55.51 C 1238.85 56.18 1238.5 57.18 1238.69 58.17 C 1238.89 59.3 1239.78 60.21 1240.89 60.44 C 1241.09 60.48 1241.3 60.5 1241.5 60.5 C 1242.16 60.5 1242.79 60.28 1243.31 59.86 C 1243.98 59.32 1244.36 58.5 1244.36 57.64 C 1244.36 56.83 1244.02 56.05 1243.41 55.51 Z M 1244.36 55.26 L 1246.27 55.26 L 1246.27 54.31 L 1244.36 54.31 Z M 1244.36 53.35 L 1246.75 53.35 L 1246.75 52.4 L 1244.36 52.4 Z M 1244.36 51.44 L 1246.27 51.44 L 1246.27 50.49 L 1244.36 50.49 Z M 1244.36 49.53 L 1246.75 49.53 L 1246.75 48.58 L 1244.36 48.58 Z M 1248.66 60.45 C 1248.66 60.75 1248.42 60.99 1248.12 60.99 L 1234.88 60.99 C 1234.58 60.99 1234.34 60.75 1234.34 60.45 L 1234.34 47.21 C 1234.34 46.91 1234.58 46.67 1234.88 46.67 L 1248.12 46.67 C 1248.42 46.67 1248.66 46.91 1248.66 47.21 Z M 1252 49.53 L 1252 48.58 L 1249.61 48.58 L 1249.61 47.21 C 1249.61 46.39 1248.94 45.72 1248.12 45.72 L 1246.75 45.72 L 1246.75 43.33 L 1245.8 43.33 L 1245.8 45.72 L 1244.36 45.72 L 1244.36 43.33 L 1243.41 43.33 L 1243.41 45.72 L 1241.98 45.72 L 1241.98 43.33 L 1241.02 43.33 L 1241.02 45.72 L 1239.59 45.72 L 1239.59 43.33 L 1238.64 43.33 L 1238.64 45.72 L 1237.2 45.72 L 1237.2 43.33 L 1236.25 43.33 L 1236.25 45.72 L 1234.88 45.72 C 1234.06 45.72 1233.39 46.39 1233.39 47.21 L 1233.39 48.58 L 1231 48.58 L 1231 49.53 L 1233.39 49.53 L 1233.39 50.97 L 1231 50.97 L 1231 51.92 L 1233.39 51.92 L 1233.39 53.35 L 1231 53.35 L 1231 54.31 L 1233.39 54.31 L 1233.39 55.74 L 1231 55.74 L 1231 56.69 L 1233.39 56.69 L 1233.39 58.13 L 1231 58.13 L 1231 59.08 L 1233.39 59.08 L 1233.39 60.45 C 1233.39 61.27 1234.06 61.94 1234.88 61.94 L 1236.25 61.94 L 1236.25 64.33 L 1237.2 64.33 L 1237.2 61.94 L 1238.64 61.94 L 1238.64 64.33 L 1239.59 64.33 L 1239.59 61.94 L 1241.02 61.94 L 1241.02 64.33 L 1241.98 64.33 L 1241.98 61.94 L 1243.41 61.94 L 1243.41 64.33 L 1244.36 64.33 L 1244.36 61.94 L 1245.8 61.94 L 1245.8 64.33 L 1246.75 64.33 L 1246.75 61.94 L 1248.12 61.94 C 1248.94 61.94 1249.61 61.27 1249.61 60.45 L 1249.61 59.08 L 1252 59.08 L 1252 58.13 L 1249.61 58.13 L 1249.61 56.69 L 1252 56.69 L 1252 55.74 L 1249.61 55.74 L 1249.61 54.31 L 1252 54.31 L 1252 53.35 L 1249.61 53.35 L 1249.61 51.92 L 1252 51.92 L 1252 50.97 L 1249.61 50.97 L 1249.61 49.53 Z" fill="#ffffff" stroke="none" pointer-events="none"/><path d="M 1119.65 42 L 1223.85 53.83" fill="none" stroke="#ffffff" stroke-opacity="0.5" stroke-width="2" stroke-miterlimit="10" pointer-events="none"/><path d="M 1223.85 53.83 L 1175 78" fill="none" stroke="#ffffff" stroke-opacity="0.3" stroke-miterlimit="10" pointer-events="none"/><ellipse cx="181" cy="22" rx="20" ry="20" fill="none" stroke="#ffffff" stroke-opacity="0.3" stroke-width="4" pointer-events="none"/><ellipse cx="181" cy="22" rx="17.647058823529417" ry="17.647058823529417" fill-opacity="0.75" fill="#00c3ff" stroke="#ffffff" stroke-opacity="0.75" pointer-events="none"/><path d="M 174.25 16.94 C 168.85 16.94 167.5 21.44 171.82 22.33 C 167.5 24.31 172.36 28.63 175.87 26.83 C 178.3 30.43 186.4 30.43 189.1 26.83 C 194.5 26.83 194.5 23.23 191.13 21.44 C 194.5 17.84 189.1 14.24 184.38 16.04 C 181 13.34 175.6 13.34 174.25 16.94 Z" fill-opacity="0.9" fill="#ffffff" stroke="none" pointer-events="none"/><path d="M 31 42 L 163.35 22" fill="none" stroke="#ffffff" stroke-opacity="0.5" stroke-width="2" stroke-miterlimit="10" pointer-events="none"/><path d="M 198.65 22 L 297.35 72" fill="none" stroke="#ffffff" stroke-opacity="0.5" stroke-width="2" stroke-miterlimit="10" pointer-events="none"/><path d="M 198.65 22 L 294 23" fill="none" stroke="#ffffff" stroke-opacity="0.3" stroke-miterlimit="10" pointer-events="none"/><path d="M 181 39.65 L 214 83" fill="none" stroke="#ffffff" stroke-opacity="0.3" stroke-miterlimit="10" pointer-events="none"/></g></svg>